# xmcd
# 
# Track frame offsets:
#     150
#     11571
#     23562
#     37084
#     48796
#     64717
#     77115
#     91121
#     106002
#     117793
#     129356
#     141479
#     152710
#     164809
#     175927
#     190036
#     202005
#     213705
#     226320
#     240824
#     253532
#     262445
#     276177
#     288163
#     301176
#     314625
# 
# Disc length: 4379
# 
# Revision: 1
# Processed by: cddbd v1.5.2PL0 Copyright (c) Steve Scherf et al.
# Submitted via: fre:ac v1.0.27
# 
DISCID=6c11191a
DTITLE=Ray Charles - Let's Have A Ball
DYEAR=2004
DGENRE=Blues
TTITLE0=Let's Have A Ball
TTITLE1=Mess Around
TTITLE2=Baby, Let Me Hold Your Hand
TTITLE3=Roll With Mebaby
TTITLE4=Let Me Hear You Call My Name
TTITLE5=Jumpin' In The Morning
TTITLE6=Kissa Me Baby
TTITLE7=I'm Wonderin' And Wonderin'
TTITLE8=The Sun's Gonna Shine
TTITLE9=C.C. Rider
TTITLE10=Honey Honey
TTITLE11=Jack, Shes On The Ball
TTITLE12=I've Had My Fun(Going Down Slow)
TTITLE13=Confession Blues
TTITLE14=Someday
TTITLE15=I'm Glad For Your Sake
TTITLE16=If I Give You My Love
TTITLE17=Why Did You Go?
TTITLE18=Funny (But I Still Love You)
TTITLE19=Alone In The City
TTITLE20=All To Myself Now
TTITLE21=Misery In My Heart (Going Down To The River)
TTITLE22=Can't You See Darling?
TTITLE23=Baby, Wont You Please Come Home?
TTITLE24=The Midnight Hour
TTITLE25=Late In The Evening Blues
EXTD=YEAR: 2004
EXTT0=
EXTT1=
EXTT2=
EXTT3=
EXTT4=
EXTT5=
EXTT6=
EXTT7=
EXTT8=
EXTT9=
EXTT10=
EXTT11=
EXTT12=
EXTT13=
EXTT14=
EXTT15=
EXTT16=
EXTT17=
EXTT18=
EXTT19=
EXTT20=
EXTT21=
EXTT22=
EXTT23=
EXTT24=
EXTT25=
PLAYORDER=
